<svg data-logo="logo" xmlns="http://www.w3.org/2000/svg" viewBox="0 0 176 42">
        <g id="logogram" transform="translate(0, 1) rotate(0)"><path d="M0 33L4.60606 25H12.2448C17.2569 25 21.4947 28.7103 22.1571 33.6784L23 40H13L11.5585 36.6365C10.613 34.4304 8.44379 33 6.04362 33H0Z" fill="#0047C1"></path><path d="M46 33L41.3939 25H33.7552C28.7431 25 24.5053 28.7103 23.8429 33.6784L23 40H33L34.4415 36.6365C35.387 34.4304 37.5562 33 39.9564 33H46Z" fill="#0047C1"></path><path d="M4.60606 25L18.9999 0H23L22.6032 9.52405C22.2608 17.7406 15.7455 24.3596 7.53537 24.8316L4.60606 25Z" fill="#0047C1"></path><path d="M41.3939 25L27.0001 0H23L23.3968 9.52405C23.7392 17.7406 30.2545 24.3596 38.4646 24.8316L41.3939 25Z" fill="#0047C1"></path></g>
        <g id="logotype" transform="translate(52, 7.5)"><path fill="#000000" d="M13.52 27L8.31 27L8.31 1.54L25.06 1.54L25.06 5.86L13.52 5.86L13.52 12.97L23.93 12.97L23.93 17.22L13.52 17.22L13.52 27ZM31.58 27L26.45 27L26.45 7.89L31.58 7.89L31.58 27ZM29.02 5.40L29.02 5.40Q27.86 5.40 27.04 4.63Q26.22 3.86 26.22 2.77L26.22 2.77Q26.22 1.67 27.04 0.90Q27.86 0.13 29.02 0.13L29.02 0.13Q30.18 0.13 31.01 0.90Q31.84 1.66 31.84 2.77L31.84 2.77Q31.84 3.86 31.01 4.63Q30.18 5.40 29.02 5.40ZM33.66 1.54L38.79 1.54L38.79 27L33.66 27L33.66 1.54ZM49.50 27.38L49.50 27.38Q46.58 27.38 44.46 26.18Q42.34 24.98 41.21 22.78Q40.07 20.57 40.07 17.55L40.07 17.55Q40.07 14.59 41.20 12.37Q42.33 10.15 44.39 8.90Q46.46 7.65 49.25 7.65L49.25 7.65Q51.13 7.65 52.75 8.25Q54.38 8.85 55.61 10.06Q56.84 11.26 57.53 13.07Q58.22 14.88 58.22 17.34L58.22 17.34L58.22 18.78L42.17 18.78L42.17 15.57L55.71 15.57L53.32 16.42Q53.32 14.93 52.86 13.83Q52.41 12.73 51.51 12.12Q50.62 11.52 49.28 11.52L49.28 11.52Q47.97 11.52 47.04 12.13Q46.10 12.75 45.63 13.80Q45.15 14.85 45.15 16.20L45.15 16.20L45.15 18.47Q45.15 20.13 45.70 21.26Q46.26 22.39 47.26 22.95Q48.26 23.51 49.59 23.51L49.59 23.51Q50.50 23.51 51.23 23.26Q51.97 23.00 52.49 22.50Q53.01 21.99 53.28 21.26L53.28 21.26L57.93 22.13Q57.47 23.70 56.32 24.89Q55.18 26.08 53.46 26.73Q51.74 27.38 49.50 27.38ZM64.58 15.94L64.58 15.94L64.58 27L59.45 27L59.45 7.89L64.29 7.89L64.37 12.66L64.06 12.66Q64.82 10.27 66.34 8.96Q67.87 7.65 70.30 7.65L70.30 7.65Q72.28 7.65 73.75 8.52Q75.22 9.38 76.04 11.00Q76.86 12.61 76.86 14.85L76.86 14.85L76.86 27L71.74 27L71.74 15.74Q71.74 13.96 70.82 12.95Q69.91 11.94 68.28 11.94L68.28 11.94Q67.21 11.94 66.36 12.41Q65.52 12.88 65.05 13.77Q64.58 14.66 64.58 15.94ZM84.09 27L78.96 27L78.96 7.89L84.09 7.89L84.09 27ZM81.53 5.40L81.53 5.40Q80.36 5.40 79.54 4.63Q78.72 3.86 78.72 2.77L78.72 2.77Q78.72 1.67 79.54 0.90Q80.36 0.13 81.53 0.13L81.53 0.13Q82.69 0.13 83.52 0.90Q84.35 1.66 84.35 2.77L84.35 2.77Q84.35 3.86 83.52 4.63Q82.69 5.40 81.53 5.40ZM94.72 27.38L94.72 27.38Q91.85 27.38 89.75 26.14Q87.64 24.90 86.51 22.68Q85.37 20.47 85.37 17.53L85.37 17.53Q85.37 14.56 86.51 12.35Q87.64 10.13 89.75 8.89Q91.85 7.65 94.72 7.65L94.72 7.65Q97.61 7.65 99.70 8.89Q101.79 10.13 102.93 12.35Q104.07 14.56 104.07 17.53L104.07 17.53Q104.07 20.47 102.93 22.68Q101.79 24.90 99.70 26.14Q97.61 27.38 94.72 27.38ZM94.72 23.34L94.72 23.34Q96.09 23.34 97.01 22.58Q97.93 21.82 98.39 20.50Q98.85 19.17 98.85 17.52L98.85 17.52Q98.85 15.82 98.39 14.51Q97.93 13.19 97.01 12.44Q96.09 11.69 94.72 11.69L94.72 11.69Q93.35 11.69 92.44 12.44Q91.52 13.19 91.06 14.51Q90.60 15.82 90.60 17.52L90.60 17.52Q90.60 19.17 91.06 20.50Q91.52 21.82 92.44 22.58Q93.35 23.34 94.72 23.34ZM110.49 15.94L110.49 15.94L110.49 27L105.36 27L105.36 7.89L110.20 7.89L110.28 12.66L109.98 12.66Q110.73 10.27 112.26 8.96Q113.79 7.65 116.22 7.65L116.22 7.65Q118.20 7.65 119.67 8.52Q121.14 9.38 121.96 11.00Q122.78 12.61 122.78 14.85L122.78 14.85L122.78 27L117.65 27L117.65 15.74Q117.65 13.96 116.74 12.95Q115.82 11.94 114.20 11.94L114.20 11.94Q113.12 11.94 112.28 12.41Q111.43 12.88 110.96 13.77Q110.49 14.66 110.49 15.94Z"></path></g>
        
      </svg>